<mxfile host="app.diagrams.net" modified="2022-06-16T05:59:13.865Z" agent="5.0 (Windows NT 10.0; Win64; x64) AppleWebKit/537.36 (KHTML, like Gecko) Chrome/102.0.0.0 Safari/537.36" etag="1-5qHJGzQGl1tC8N_7bG" version="20.0.1" type="github">
  <diagram id="3DekjfNhCCmHhPtTN9iT" name="lock">
    <mxGraphModel dx="1438" dy="547" grid="1" gridSize="10" guides="1" tooltips="1" connect="1" arrows="1" fold="1" page="0" pageScale="1" pageWidth="827" pageHeight="1169" math="0" shadow="0">
      <root>
        <mxCell id="0" />
        <mxCell id="1" parent="0" />
        <mxCell id="x7YFDtXw7JJySncnwOp_-4" style="edgeStyle=orthogonalEdgeStyle;rounded=0;orthogonalLoop=1;jettySize=auto;html=1;exitX=0.5;exitY=1;exitDx=0;exitDy=0;exitPerimeter=0;entryX=0.5;entryY=0;entryDx=0;entryDy=0;" edge="1" parent="1" source="x7YFDtXw7JJySncnwOp_-1" target="x7YFDtXw7JJySncnwOp_-2">
          <mxGeometry relative="1" as="geometry" />
        </mxCell>
        <mxCell id="x7YFDtXw7JJySncnwOp_-1" value="start" style="strokeWidth=1;html=1;shape=mxgraph.flowchart.start_2;whiteSpace=wrap;labelBorderColor=none;strokeColor=#82b366;perimeterSpacing=1;fillColor=#d5e8d4;shadow=1;fontSize=14;" vertex="1" parent="1">
          <mxGeometry y="40" width="80" height="80" as="geometry" />
        </mxCell>
        <mxCell id="x7YFDtXw7JJySncnwOp_-6" value="" style="edgeStyle=orthogonalEdgeStyle;rounded=0;orthogonalLoop=1;jettySize=auto;html=1;" edge="1" parent="1" source="x7YFDtXw7JJySncnwOp_-2" target="x7YFDtXw7JJySncnwOp_-5">
          <mxGeometry relative="1" as="geometry" />
        </mxCell>
        <mxCell id="x7YFDtXw7JJySncnwOp_-2" value="创建ReentrantLock对象&lt;span style=&quot;color: rgba(0, 0, 0, 0); font-family: monospace; font-size: 0px; text-align: start;&quot;&gt;%3CmxGraphModel%3E%3Croot%3E%3CmxCell%20id%3D%220%22%2F%3E%3CmxCell%20id%3D%221%22%20parent%3D%220%22%2F%3E%3CmxCell%20id%3D%222%22%20value%3D%22%E5%B0%86-1%E8%B5%8B%E5%80%BC%E7%BB%99%E5%8F%98%E9%87%8Fdir%22%20style%3D%22rounded%3D1%3BwhiteSpace%3Dwrap%3Bhtml%3D1%3BabsoluteArcSize%3D1%3BarcSize%3D14%3BstrokeWidth%3D1%3BfillColor%3D%23dae8fc%3BstrokeColor%3D%236c8ebf%3Bshadow%3D1%3B%22%20vertex%3D%221%22%20parent%3D%221%22%3E%3CmxGeometry%20x%3D%22580%22%20y%3D%22283.25%22%20width%3D%22110%22%20height%3D%2250.5%22%20as%3D%22geometry%22%2F%3E%3C%2FmxCell%3E%3C%2Froot%3E%3C%2FmxGraphModel%3E&lt;/span&gt;" style="rounded=1;whiteSpace=wrap;html=1;absoluteArcSize=1;arcSize=14;strokeWidth=1;fillColor=#dae8fc;strokeColor=#6c8ebf;shadow=1;" vertex="1" parent="1">
          <mxGeometry x="-15" y="160" width="110" height="50.5" as="geometry" />
        </mxCell>
        <mxCell id="x7YFDtXw7JJySncnwOp_-3" value="默认实现非公平锁" style="shape=callout;whiteSpace=wrap;html=1;perimeter=calloutPerimeter;position2=0.08;fillColor=#f5f5f5;fontColor=#333333;strokeColor=#666666;size=34;position=0.25;rounded=1;arcSize=50;spacing=3;" vertex="1" parent="1">
          <mxGeometry x="90" y="86.25" width="110" height="73.75" as="geometry" />
        </mxCell>
        <mxCell id="x7YFDtXw7JJySncnwOp_-10" value="" style="edgeStyle=orthogonalEdgeStyle;rounded=0;orthogonalLoop=1;jettySize=auto;html=1;" edge="1" parent="1" source="x7YFDtXw7JJySncnwOp_-5" target="x7YFDtXw7JJySncnwOp_-9">
          <mxGeometry relative="1" as="geometry" />
        </mxCell>
        <mxCell id="x7YFDtXw7JJySncnwOp_-5" value="t1线程lock" style="rounded=1;whiteSpace=wrap;html=1;absoluteArcSize=1;arcSize=14;strokeWidth=1;fillColor=#dae8fc;strokeColor=#6c8ebf;shadow=1;" vertex="1" parent="1">
          <mxGeometry x="-15" y="240" width="110" height="50.5" as="geometry" />
        </mxCell>
        <mxCell id="x7YFDtXw7JJySncnwOp_-7" value="" style="strokeWidth=1;html=1;shape=mxgraph.flowchart.decision;whiteSpace=wrap;fillColor=#f8cecc;strokeColor=#b85450;shadow=1;" vertex="1" parent="1">
          <mxGeometry x="-350" y="42" width="142.75" height="118" as="geometry" />
        </mxCell>
        <mxCell id="x7YFDtXw7JJySncnwOp_-13" value="" style="edgeStyle=orthogonalEdgeStyle;rounded=0;orthogonalLoop=1;jettySize=auto;html=1;" edge="1" parent="1" source="x7YFDtXw7JJySncnwOp_-9" target="x7YFDtXw7JJySncnwOp_-12">
          <mxGeometry relative="1" as="geometry" />
        </mxCell>
        <mxCell id="x7YFDtXw7JJySncnwOp_-15" value="true" style="edgeLabel;html=1;align=center;verticalAlign=middle;resizable=0;points=[];fontSize=16;" vertex="1" connectable="0" parent="x7YFDtXw7JJySncnwOp_-13">
          <mxGeometry x="0.2482" y="-1" relative="1" as="geometry">
            <mxPoint x="-10" y="-1" as="offset" />
          </mxGeometry>
        </mxCell>
        <mxCell id="x7YFDtXw7JJySncnwOp_-18" value="" style="edgeStyle=orthogonalEdgeStyle;rounded=0;orthogonalLoop=1;jettySize=auto;html=1;fontSize=16;" edge="1" parent="1" source="x7YFDtXw7JJySncnwOp_-9">
          <mxGeometry relative="1" as="geometry">
            <mxPoint x="40.00500000000011" y="520" as="targetPoint" />
          </mxGeometry>
        </mxCell>
        <mxCell id="x7YFDtXw7JJySncnwOp_-9" value="CAS设置state成功？" style="strokeWidth=1;html=1;shape=mxgraph.flowchart.decision;whiteSpace=wrap;fillColor=#ffe6cc;strokeColor=#d79b00;shadow=1;" vertex="1" parent="1">
          <mxGeometry x="-31.370000000000005" y="320" width="142.75" height="118" as="geometry" />
        </mxCell>
        <mxCell id="x7YFDtXw7JJySncnwOp_-11" value="state为0则没有线程占用，1相反" style="shape=callout;whiteSpace=wrap;html=1;perimeter=calloutPerimeter;position2=1;fillColor=#f5f5f5;fontColor=#333333;strokeColor=#666666;size=34;position=0.55;rounded=1;arcSize=50;base=9;spacing=3;" vertex="1" parent="1">
          <mxGeometry x="-180" y="290.5" width="148.63" height="83.75" as="geometry" />
        </mxCell>
        <mxCell id="x7YFDtXw7JJySncnwOp_-12" value="设置exclusiveOwnerThread&lt;br&gt;为当前线程" style="rounded=1;whiteSpace=wrap;html=1;absoluteArcSize=1;arcSize=14;strokeWidth=1;fillColor=#dae8fc;strokeColor=#6c8ebf;shadow=1;" vertex="1" parent="1">
          <mxGeometry x="200" y="353.75" width="170" height="50.5" as="geometry" />
        </mxCell>
        <mxCell id="x7YFDtXw7JJySncnwOp_-14" value="exclusiveOwnerThread表示当前线程独占" style="shape=callout;whiteSpace=wrap;html=1;perimeter=calloutPerimeter;position2=0.47;fillColor=#f5f5f5;fontColor=#333333;strokeColor=#666666;size=34;position=0.55;rounded=1;arcSize=50;base=9;spacing=3;" vertex="1" parent="1">
          <mxGeometry x="230" y="270" width="148.63" height="83.75" as="geometry" />
        </mxCell>
        <mxCell id="x7YFDtXw7JJySncnwOp_-19" value="false" style="edgeLabel;html=1;align=center;verticalAlign=middle;resizable=0;points=[];fontSize=16;" vertex="1" connectable="0" parent="1">
          <mxGeometry x="50.0000000000002" y="470" as="geometry">
            <mxPoint x="-12" y="-1" as="offset" />
          </mxGeometry>
        </mxCell>
        <mxCell id="x7YFDtXw7JJySncnwOp_-20" value="说明有其他线程独占了，&lt;br&gt;考虑是否需要自旋获取锁" style="shape=callout;whiteSpace=wrap;html=1;perimeter=calloutPerimeter;position2=1;fillColor=#f5f5f5;fontColor=#333333;strokeColor=#666666;size=34;position=0.55;rounded=1;arcSize=50;base=9;spacing=3;" vertex="1" parent="1">
          <mxGeometry x="-140" y="420" width="148.63" height="83.75" as="geometry" />
        </mxCell>
        <mxCell id="x7YFDtXw7JJySncnwOp_-37" value="" style="edgeStyle=orthogonalEdgeStyle;rounded=0;orthogonalLoop=1;jettySize=auto;html=1;fontSize=16;" edge="1" parent="1" source="x7YFDtXw7JJySncnwOp_-30" target="x7YFDtXw7JJySncnwOp_-36">
          <mxGeometry relative="1" as="geometry" />
        </mxCell>
        <mxCell id="x7YFDtXw7JJySncnwOp_-46" value="" style="edgeStyle=orthogonalEdgeStyle;rounded=0;orthogonalLoop=1;jettySize=auto;html=1;fontSize=16;" edge="1" parent="1" source="x7YFDtXw7JJySncnwOp_-30" target="x7YFDtXw7JJySncnwOp_-45">
          <mxGeometry relative="1" as="geometry" />
        </mxCell>
        <mxCell id="x7YFDtXw7JJySncnwOp_-30" value="state为0？" style="strokeWidth=1;html=1;shape=mxgraph.flowchart.decision;whiteSpace=wrap;fillColor=#ffe6cc;strokeColor=#d79b00;shadow=1;" vertex="1" parent="1">
          <mxGeometry x="-15" y="520" width="111.37" height="80" as="geometry" />
        </mxCell>
        <mxCell id="x7YFDtXw7JJySncnwOp_-41" value="" style="edgeStyle=orthogonalEdgeStyle;rounded=0;orthogonalLoop=1;jettySize=auto;html=1;fontSize=16;" edge="1" parent="1" source="x7YFDtXw7JJySncnwOp_-36" target="x7YFDtXw7JJySncnwOp_-40">
          <mxGeometry relative="1" as="geometry" />
        </mxCell>
        <mxCell id="x7YFDtXw7JJySncnwOp_-59" style="edgeStyle=orthogonalEdgeStyle;rounded=0;orthogonalLoop=1;jettySize=auto;html=1;exitX=0.5;exitY=1;exitDx=0;exitDy=0;exitPerimeter=0;entryX=1;entryY=0.5;entryDx=0;entryDy=0;entryPerimeter=0;fontSize=16;" edge="1" parent="1" source="x7YFDtXw7JJySncnwOp_-36" target="x7YFDtXw7JJySncnwOp_-50">
          <mxGeometry relative="1" as="geometry">
            <Array as="points">
              <mxPoint x="560" y="619" />
              <mxPoint x="560" y="920" />
            </Array>
          </mxGeometry>
        </mxCell>
        <mxCell id="x7YFDtXw7JJySncnwOp_-36" value="CAS设置state成功？" style="strokeWidth=1;html=1;shape=mxgraph.flowchart.decision;whiteSpace=wrap;fillColor=#ffe6cc;strokeColor=#d79b00;shadow=1;" vertex="1" parent="1">
          <mxGeometry x="200" y="501" width="142.75" height="118" as="geometry" />
        </mxCell>
        <mxCell id="x7YFDtXw7JJySncnwOp_-38" value="true" style="edgeLabel;html=1;align=center;verticalAlign=middle;resizable=0;points=[];fontSize=16;" vertex="1" connectable="0" parent="1">
          <mxGeometry x="210.0000000000002" y="392.1" as="geometry">
            <mxPoint x="-55" y="167" as="offset" />
          </mxGeometry>
        </mxCell>
        <mxCell id="x7YFDtXw7JJySncnwOp_-39" value="通过CAS设置state为1，&lt;br&gt;尝试获取锁" style="shape=callout;whiteSpace=wrap;html=1;perimeter=calloutPerimeter;position2=0.13;fillColor=#f5f5f5;fontColor=#333333;strokeColor=#666666;size=34;position=0.55;rounded=1;arcSize=50;base=9;spacing=3;" vertex="1" parent="1">
          <mxGeometry x="290" y="450" width="148.63" height="83.75" as="geometry" />
        </mxCell>
        <mxCell id="x7YFDtXw7JJySncnwOp_-44" value="" style="edgeStyle=orthogonalEdgeStyle;rounded=0;orthogonalLoop=1;jettySize=auto;html=1;fontSize=16;" edge="1" parent="1" source="x7YFDtXw7JJySncnwOp_-40" target="x7YFDtXw7JJySncnwOp_-43">
          <mxGeometry relative="1" as="geometry" />
        </mxCell>
        <mxCell id="x7YFDtXw7JJySncnwOp_-40" value="设置exclusiveOwnerThread&lt;br&gt;为当前线程" style="rounded=1;whiteSpace=wrap;html=1;absoluteArcSize=1;arcSize=14;strokeWidth=1;fillColor=#dae8fc;strokeColor=#6c8ebf;shadow=1;" vertex="1" parent="1">
          <mxGeometry x="438.63" y="533.75" width="170" height="50.5" as="geometry" />
        </mxCell>
        <mxCell id="x7YFDtXw7JJySncnwOp_-42" value="true" style="edgeLabel;html=1;align=center;verticalAlign=middle;resizable=0;points=[];fontSize=16;" vertex="1" connectable="0" parent="1">
          <mxGeometry x="450.0000000000002" y="392.1" as="geometry">
            <mxPoint x="-55" y="167" as="offset" />
          </mxGeometry>
        </mxCell>
        <mxCell id="x7YFDtXw7JJySncnwOp_-43" value="return&amp;nbsp;true" style="strokeWidth=1;html=1;shape=mxgraph.flowchart.start_2;whiteSpace=wrap;labelBorderColor=none;strokeColor=#b85450;perimeterSpacing=1;fillColor=#f8cecc;shadow=1;fontSize=14;" vertex="1" parent="1">
          <mxGeometry x="680" y="520" width="80" height="80" as="geometry" />
        </mxCell>
        <mxCell id="x7YFDtXw7JJySncnwOp_-51" value="" style="edgeStyle=orthogonalEdgeStyle;rounded=0;orthogonalLoop=1;jettySize=auto;html=1;fontSize=16;" edge="1" parent="1" source="x7YFDtXw7JJySncnwOp_-45" target="x7YFDtXw7JJySncnwOp_-50">
          <mxGeometry relative="1" as="geometry" />
        </mxCell>
        <mxCell id="x7YFDtXw7JJySncnwOp_-54" value="" style="edgeStyle=orthogonalEdgeStyle;rounded=0;orthogonalLoop=1;jettySize=auto;html=1;fontSize=16;" edge="1" parent="1" source="x7YFDtXw7JJySncnwOp_-45" target="x7YFDtXw7JJySncnwOp_-53">
          <mxGeometry relative="1" as="geometry" />
        </mxCell>
        <mxCell id="x7YFDtXw7JJySncnwOp_-45" value="当前线程是当前的&lt;br&gt;独占线程？" style="strokeWidth=1;html=1;shape=mxgraph.flowchart.decision;whiteSpace=wrap;fillColor=#ffe6cc;strokeColor=#d79b00;shadow=1;" vertex="1" parent="1">
          <mxGeometry x="-30.689999999999998" y="680" width="142.75" height="118" as="geometry" />
        </mxCell>
        <mxCell id="x7YFDtXw7JJySncnwOp_-47" value="这里判断是不是同一个&lt;br&gt;线程重入" style="shape=callout;whiteSpace=wrap;html=1;perimeter=calloutPerimeter;position2=1;fillColor=#f5f5f5;fontColor=#333333;strokeColor=#666666;size=34;position=0.55;rounded=1;arcSize=50;base=9;spacing=3;" vertex="1" parent="1">
          <mxGeometry x="-148.63" y="630" width="148.63" height="83.75" as="geometry" />
        </mxCell>
        <mxCell id="x7YFDtXw7JJySncnwOp_-48" value="false" style="edgeLabel;html=1;align=center;verticalAlign=middle;resizable=0;points=[];fontSize=16;" vertex="1" connectable="0" parent="1">
          <mxGeometry x="50.0000000000002" y="640" as="geometry">
            <mxPoint x="-12" y="-1" as="offset" />
          </mxGeometry>
        </mxCell>
        <mxCell id="x7YFDtXw7JJySncnwOp_-50" value="return&amp;nbsp;false" style="strokeWidth=1;html=1;shape=mxgraph.flowchart.start_2;whiteSpace=wrap;labelBorderColor=none;strokeColor=#b85450;perimeterSpacing=1;fillColor=#f8cecc;shadow=1;fontSize=14;" vertex="1" parent="1">
          <mxGeometry x="0.6800000000000068" y="880" width="80" height="80" as="geometry" />
        </mxCell>
        <mxCell id="x7YFDtXw7JJySncnwOp_-52" value="false" style="edgeLabel;html=1;align=center;verticalAlign=middle;resizable=0;points=[];fontSize=16;" vertex="1" connectable="0" parent="1">
          <mxGeometry x="50.0000000000002" y="840" as="geometry">
            <mxPoint x="-12" y="-1" as="offset" />
          </mxGeometry>
        </mxCell>
        <mxCell id="x7YFDtXw7JJySncnwOp_-58" value="" style="edgeStyle=orthogonalEdgeStyle;rounded=0;orthogonalLoop=1;jettySize=auto;html=1;fontSize=16;" edge="1" parent="1" source="x7YFDtXw7JJySncnwOp_-53" target="x7YFDtXw7JJySncnwOp_-57">
          <mxGeometry relative="1" as="geometry" />
        </mxCell>
        <mxCell id="x7YFDtXw7JJySncnwOp_-53" value="将state加1" style="rounded=1;whiteSpace=wrap;html=1;absoluteArcSize=1;arcSize=14;strokeWidth=1;fillColor=#dae8fc;strokeColor=#6c8ebf;shadow=1;" vertex="1" parent="1">
          <mxGeometry x="200" y="720.88" width="120" height="39.12" as="geometry" />
        </mxCell>
        <mxCell id="x7YFDtXw7JJySncnwOp_-55" value="true" style="edgeLabel;html=1;align=center;verticalAlign=middle;resizable=0;points=[];fontSize=16;" vertex="1" connectable="0" parent="1">
          <mxGeometry x="210.0000000000002" y="570" as="geometry">
            <mxPoint x="-55" y="167" as="offset" />
          </mxGeometry>
        </mxCell>
        <mxCell id="x7YFDtXw7JJySncnwOp_-56" value="达到可重入的效果" style="shape=callout;whiteSpace=wrap;html=1;perimeter=calloutPerimeter;position2=0.13;fillColor=#f5f5f5;fontColor=#333333;strokeColor=#666666;size=34;position=0.55;rounded=1;arcSize=50;base=9;spacing=3;" vertex="1" parent="1">
          <mxGeometry x="260" y="657.13" width="130" height="63.75" as="geometry" />
        </mxCell>
        <mxCell id="x7YFDtXw7JJySncnwOp_-57" value="return&amp;nbsp;true" style="strokeWidth=1;html=1;shape=mxgraph.flowchart.start_2;whiteSpace=wrap;labelBorderColor=none;strokeColor=#b85450;perimeterSpacing=1;fillColor=#f8cecc;shadow=1;fontSize=14;" vertex="1" parent="1">
          <mxGeometry x="400" y="700.44" width="80" height="80" as="geometry" />
        </mxCell>
        <mxCell id="x7YFDtXw7JJySncnwOp_-60" value="false" style="edgeLabel;html=1;align=center;verticalAlign=middle;resizable=0;points=[];fontSize=16;" vertex="1" connectable="0" parent="1">
          <mxGeometry x="570.0000000000002" y="660" as="geometry">
            <mxPoint x="-12" y="-1" as="offset" />
          </mxGeometry>
        </mxCell>
      </root>
    </mxGraphModel>
  </diagram>
</mxfile>
